<svg width="167" height="34" viewBox="0 0 167 34" fill="none" xmlns="http://www.w3.org/2000/svg">
<path d="M18.458 8.85449C19.3369 8.48014 20.0531 8.29297 20.6064 8.29297C21.4854 8.29297 22.1934 8.58594 22.7305 9.17188C23.2839 9.74154 23.5605 10.4821 23.5605 11.3936C23.5605 13.5583 22.4212 15.4788 20.1426 17.1553C21.0866 19.1735 21.5586 21.0859 21.5586 22.8926C21.5586 25.7409 20.46 28.223 18.2627 30.3389C16.0817 32.4385 13.3636 33.4883 10.1084 33.4883C7.60189 33.4883 5.51855 32.8861 3.8584 31.6816C2.21452 30.4609 1.16471 28.7194 0.708984 26.457C1.55534 25.8223 2.75163 25.4235 4.29785 25.2607L4.44434 25.7002C4.21647 26.0745 4.10254 26.5547 4.10254 27.1406C4.10254 28.6217 4.74544 29.875 6.03125 30.9004C7.33333 31.9258 8.90397 32.4385 10.7432 32.4385C13.0218 32.4385 14.9424 31.6491 16.5049 30.0703C18.0674 28.4753 18.8486 26.5547 18.8486 24.3086C18.8486 22.681 18.2627 20.7441 17.0908 18.498C16.4235 18.5957 15.6911 18.6445 14.8936 18.6445C12.3708 18.6445 10.3281 17.9609 8.76562 16.5938C7.2194 15.2266 6.44629 13.4606 6.44629 11.2959C6.44629 8.39876 7.85417 5.87598 10.6699 3.72754C13.502 1.56283 17.4082 0.488607 22.3887 0.504883L22.6084 1.09082C20.7529 1.66048 19.3206 2.58822 18.3115 3.87402C17.3024 5.14355 16.7979 6.51888 16.7979 8C16.7979 9.95312 17.75 12.6875 19.6543 16.2031C21.1191 15.1615 21.8516 13.8757 21.8516 12.3457C21.8516 11.4831 21.6074 10.7669 21.1191 10.1973C20.6471 9.6276 20.1426 9.34277 19.6055 9.34277C19.4102 9.34277 19.0602 9.3916 18.5557 9.48926L18.458 8.85449ZM19.8496 1.50586C16.3991 1.89648 13.7868 2.87305 12.0127 4.43555C10.2386 5.99805 9.35156 8.04883 9.35156 10.5879C9.35156 12.6875 9.92122 14.3802 11.0605 15.666C12.1999 16.9518 13.6973 17.5947 15.5527 17.5947L16.5049 17.5459C15.2354 14.5837 14.6006 12.1667 14.6006 10.2949C14.6006 6.76302 16.3503 3.83333 19.8496 1.50586ZM42.7256 29.1426C40.7562 32.0397 38.8763 33.4883 37.0859 33.4883C36.5 33.4883 36.0524 33.3011 35.7432 32.9268C35.4339 32.5361 35.2793 31.6572 35.2793 30.29V24.6992C35.2793 23.8366 35.0107 23.4053 34.4736 23.4053C34.2132 23.4053 33.9365 23.5029 33.6436 23.6982C33.3669 23.8936 33.0658 24.1865 32.7402 24.5771C32.4147 24.9515 31.9508 25.5863 31.3486 26.4814C30.7627 27.3604 30.4697 27.8486 30.4697 27.9463V32.3408L28.0283 33.9033V25.7002C27.5238 26.986 26.7588 28.2881 25.7334 29.6064L24.9766 28.9961C26.6204 26.6849 27.654 24.6016 28.0771 22.7461L30.4697 21.5986V26.1396C31.6579 24.4144 32.6182 23.2588 33.3506 22.6729C34.083 22.0869 34.8236 21.7939 35.5723 21.7939C36.2559 21.7939 36.7848 22.0381 37.1592 22.5264C37.5335 23.0146 37.7207 24.2191 37.7207 26.1396V29.4111C37.7207 30.29 37.7533 30.8923 37.8184 31.2178C37.8997 31.5433 38.1032 31.7061 38.4287 31.7061C39.2262 31.7061 40.4062 30.64 41.9688 28.5078L42.7256 29.1426ZM47.3398 17.2529C47.7305 17.0251 48.2513 16.9111 48.9023 16.9111C50.1882 16.9111 51.2949 17.4645 52.2227 18.5713C53.1667 19.6781 53.6387 21.0697 53.6387 22.7461C53.6387 26.6198 51.5228 30.3063 47.291 33.8057L46.998 33.6104C47.0632 33.1058 47.0957 32.6663 47.0957 32.292C47.0957 30.7946 46.1436 28.7275 44.2393 26.0908C43.8649 26.4652 43.3929 27.0918 42.8232 27.9707L41.7002 29.6553L40.9434 28.9961C41.2363 28.6217 41.6188 28.0439 42.0908 27.2627C42.5628 26.4652 42.929 25.8792 43.1895 25.5049C44.0358 24.3493 44.5404 23.1449 44.7031 21.8916H45.0449C45.2077 22.738 45.7611 23.8447 46.7051 25.2119C47.6491 26.5791 48.2269 27.6289 48.4385 28.3613C48.6663 29.0775 48.7803 29.7611 48.7803 30.4121V31.0957C51.3519 28.459 52.6377 25.6595 52.6377 22.6973C52.6377 21.5905 52.3691 20.7197 51.832 20.085C51.2949 19.4339 50.5951 19.1084 49.7324 19.1084C49.0814 19.1084 48.4548 19.2712 47.8525 19.5967C47.5107 18.9131 47.3398 18.1318 47.3398 17.2529ZM55.5918 29.1426C53.8177 32.0072 51.6204 33.5615 49 33.8057L48.8291 33.3418C50.0173 33.0651 51.0182 32.6094 51.832 31.9746C52.6458 31.3236 53.6305 30.1842 54.7861 28.5566L55.5918 29.1426ZM68.6045 29.1426C67.6442 30.7051 66.5944 31.8444 65.4551 32.5605C64.3158 33.2604 62.8184 33.6104 60.9629 33.6104C59.612 33.6104 58.5378 33.2116 57.7402 32.4141C56.959 31.6003 56.5684 30.4609 56.5684 28.9961C56.5684 28.6055 56.6009 28.1904 56.666 27.751C56.0801 28.4997 55.6325 29.1019 55.3232 29.5576L54.5176 28.9961C56.6335 26.0013 58.2611 24.04 59.4004 23.1123C60.5397 22.1683 61.7116 21.6963 62.916 21.6963C63.5833 21.6963 64.1286 21.8916 64.5518 22.2822C64.9912 22.6729 65.2109 23.1774 65.2109 23.7959C65.2109 25.9118 63.3473 27.9951 59.6201 30.0459C60.1247 31.2178 61.1745 31.8037 62.7695 31.8037C63.5345 31.8037 64.3809 31.527 65.3086 30.9736C66.2526 30.4202 67.1071 29.6146 67.8721 28.5566L68.6045 29.1426ZM59.1562 29.0938C61.8581 27.7754 63.209 26.3105 63.209 24.6992C63.209 24.2109 63.0706 23.8122 62.7939 23.5029C62.5335 23.1937 62.1755 23.0391 61.7197 23.0391C60.8896 23.0391 60.1898 23.4215 59.6201 24.1865C59.0505 24.9515 58.7656 25.8711 58.7656 26.9453C58.7656 27.5312 58.8307 28.0277 58.9609 28.4346C59.0911 28.8252 59.1562 29.0449 59.1562 29.0938ZM73.2432 21.208C74.5127 21.859 75.5299 22.8112 76.2949 24.0645C77.0599 25.3177 77.4424 26.5791 77.4424 27.8486C77.4424 29.3623 76.9948 30.6807 76.0996 31.8037C75.2207 32.9268 74.0895 33.4883 72.7061 33.4883C72.0225 33.4883 71.2819 33.2604 70.4844 32.8047C69.6868 32.349 68.9951 31.6816 68.4092 30.8027C68.9137 30.0215 69.6462 29.3542 70.6064 28.8008L70.8018 29.0449C70.7692 29.2077 70.7529 29.4437 70.7529 29.7529C70.7529 30.4528 70.9971 31.0794 71.4854 31.6328C71.9736 32.1699 72.527 32.4385 73.1455 32.4385C73.9105 32.4385 74.5371 32.1211 75.0254 31.4863C75.5137 30.8353 75.7578 30.0215 75.7578 29.0449C75.7578 27.0267 74.5534 25.2282 72.1445 23.6494L70.0693 26.9209C69.2393 28.2555 68.637 29.1507 68.2627 29.6064L67.5059 28.9961C69.166 26.5384 70.818 23.5436 72.4619 20.0117L73.0479 20.0605L73.2432 21.208ZM81.5928 29.1426C79.8512 32.0072 77.654 33.5615 75.001 33.8057L74.8545 33.3418C76.0264 33.0651 77.0192 32.6094 77.833 31.9746C78.6631 31.3236 79.6722 30.1842 80.8604 28.5566L81.5928 29.1426ZM92.4814 29.0938C90.6423 32.0234 88.6973 33.4883 86.6465 33.4883C85.6699 33.4883 85.0596 33.2604 84.8154 32.8047C84.5713 32.3327 84.4492 31.584 84.4492 30.5586V24.6504C83.3587 26.5221 82.2926 28.1579 81.251 29.5576L80.4453 28.9961C81.0475 28.1009 81.5602 27.3197 81.9834 26.6523C82.4066 25.985 82.9193 25.1143 83.5215 24.04C84.14 22.9495 84.4492 22.3392 84.4492 22.209V12.1992L86.8906 9.80664V19.1084L90.6504 13.2002L91.6025 13.9082L86.8906 21.3545V28.8496C86.8906 29.9889 86.9395 30.7539 87.0371 31.1445C87.1348 31.5189 87.4033 31.7061 87.8428 31.7061C88.9495 31.7061 90.2679 30.6237 91.7979 28.459L92.4814 29.0938ZM133.082 28.5566C130.901 32.0234 128.403 33.7568 125.587 33.7568C123.243 33.7568 121.38 32.6582 119.996 30.4609C118.613 28.2637 117.921 25.1794 117.921 21.208C117.921 20.085 117.986 18.4818 118.116 16.3984C117.693 16.4961 117.197 16.5449 116.627 16.5449C116.269 16.5449 115.878 16.4717 115.455 16.3252C115.032 16.1787 114.706 16.1055 114.479 16.1055C114.365 16.1055 114.145 16.138 113.819 16.2031C114.129 17.668 114.283 19.3363 114.283 21.208C114.283 24.7725 113.258 27.7428 111.207 30.1191C109.156 32.4792 106.528 33.6592 103.321 33.6592C99.3825 33.6592 96.6481 32.0885 95.1182 28.9473L97.7305 26.6523L98.0723 26.8965C98.9349 30.7051 100.969 32.6094 104.176 32.6094C106.357 32.6094 108.098 31.8281 109.4 30.2656C110.719 28.7031 111.378 26.5954 111.378 23.9424C111.378 23.3239 111.272 22.0381 111.061 20.085C110.865 18.1156 110.768 16.4229 110.768 15.0068C110.768 10.7913 111.451 7.37337 112.818 4.75293C112.623 4.81803 112.143 5.02962 111.378 5.3877C110.629 5.72949 109.962 5.90039 109.376 5.90039C108.106 5.90039 106.829 5.29004 105.543 4.06934C104.273 2.84863 103.102 2.23828 102.027 2.23828C100.823 2.23828 99.6999 2.81608 98.6582 3.97168C97.6328 5.12728 97.1201 6.4375 97.1201 7.90234C97.1201 9.1556 97.5026 10.1973 98.2676 11.0273C99.0326 11.8411 99.9684 12.248 101.075 12.248C101.889 12.248 102.646 12.012 103.346 11.54C104.062 11.0518 104.607 10.3682 104.981 9.48926L105.616 9.70898C105.209 11.2064 104.477 12.3701 103.419 13.2002C102.361 14.0303 101.262 14.4453 100.123 14.4453C98.8535 14.4453 97.7874 13.9733 96.9248 13.0293C96.0622 12.069 95.6309 10.889 95.6309 9.48926C95.6309 7.21061 96.4284 5.13542 98.0234 3.26367C99.6348 1.39193 101.466 0.456055 103.517 0.456055C105.209 0.456055 106.78 1.20475 108.229 2.70215C109.303 3.76009 110.287 4.28906 111.183 4.28906C112.062 4.28906 112.867 3.87402 113.6 3.04395L115.626 0.749023L116.383 1.26172C114.12 3.45898 112.989 6.40495 112.989 10.0996C112.989 11.7272 113.201 13.3792 113.624 15.0557C114.373 14.5837 115.056 14.3477 115.675 14.3477C116.375 14.3477 117.294 14.6325 118.434 15.2021C119.264 10.6286 120.729 7.04785 122.828 4.45996C124.944 1.85579 127.174 0.553711 129.518 0.553711C130.999 0.553711 132.089 1.01758 132.789 1.94531L130.323 4.45996C129.607 2.91374 128.744 2.14062 127.735 2.14062C126.14 2.14062 124.553 3.54036 122.975 6.33984C121.412 9.12305 120.631 12.9967 120.631 17.9609C120.631 22.1276 121.241 25.4642 122.462 27.9707C123.683 30.4609 125.188 31.7061 126.979 31.7061C128.948 31.7061 130.73 30.4528 132.325 27.9463L133.082 28.5566ZM149.854 29.1426C147.885 32.0397 146.005 33.4883 144.215 33.4883C143.613 33.4883 143.149 33.293 142.823 32.9023C142.514 32.4954 142.359 31.6247 142.359 30.29V28.2393C140.602 30.8271 139.365 32.3896 138.648 32.9268C137.932 33.4476 137.257 33.708 136.622 33.708C135.955 33.708 135.434 33.4801 135.06 33.0244C134.701 32.5687 134.522 31.5107 134.522 29.8506V25.8467C133.823 27.4092 133.106 28.6462 132.374 29.5576L131.568 28.9961C133.017 26.9128 134.002 24.8132 134.522 22.6973L136.964 21.4521V30.29C136.964 30.9248 136.996 31.3561 137.062 31.584C137.143 31.7956 137.346 31.9014 137.672 31.9014C138.03 31.9014 138.494 31.6247 139.063 31.0713C139.649 30.5179 140.341 29.6309 141.139 28.4102C141.952 27.1895 142.359 26.5221 142.359 26.4082V22.6973L144.825 21.4521V29.0938C144.825 30.1029 144.858 30.7946 144.923 31.1689C145.004 31.527 145.216 31.7061 145.558 31.7061C146.355 31.7061 147.543 30.64 149.122 28.5078L149.854 29.1426ZM154.713 24.1621C156.015 22.4531 157.61 21.5986 159.498 21.5986C160.556 21.5986 161.419 21.9811 162.086 22.7461C162.77 23.4948 163.111 24.4632 163.111 25.6514C163.111 27.5719 162.395 29.3623 160.963 31.0225C159.547 32.6663 157.96 33.4883 156.202 33.4883C154.916 33.4883 153.907 33.0814 153.175 32.2676C152.459 31.4375 152.101 30.2656 152.101 28.752V25.0898C151.547 26.5059 150.733 27.9626 149.659 29.46L148.951 28.8008C149.863 27.3522 150.611 25.9606 151.197 24.626C151.799 23.2913 152.101 22.5833 152.101 22.502V13.4443C152.101 10.6286 152.711 8.34993 153.932 6.6084C155.152 4.86686 156.56 3.99609 158.155 3.99609C158.969 3.99609 159.628 4.28092 160.133 4.85059C160.654 5.42025 160.914 6.15267 160.914 7.04785C160.914 8.31738 160.442 10.002 159.498 12.1016C158.57 14.2012 156.975 17.1878 154.713 21.0615V24.1621ZM154.713 19.0596C156.552 15.8044 157.757 13.4199 158.326 11.9062C158.912 10.3926 159.205 9.04167 159.205 7.85352C159.205 7.05599 159.034 6.41309 158.692 5.9248C158.351 5.43652 157.903 5.19238 157.35 5.19238C156.552 5.19238 155.909 5.65625 155.421 6.58398C154.949 7.51172 154.713 8.7487 154.713 10.2949V19.0596ZM154.713 29.1914C154.713 31.3561 155.445 32.4385 156.91 32.4385C157.903 32.4385 158.814 31.9176 159.645 30.876C160.491 29.8343 160.914 28.6055 160.914 27.1895C160.914 26.0176 160.646 25.098 160.108 24.4307C159.571 23.7471 158.871 23.4053 158.009 23.4053C157 23.4053 156.194 23.7796 155.592 24.5283C155.006 25.2607 154.713 25.7002 154.713 25.8467V29.1914ZM166.554 29.1426C164.763 31.9746 162.379 33.5615 159.4 33.9033L159.205 33.3418C161.826 32.7559 164.023 31.1608 165.797 28.5566L166.554 29.1426Z" fill="white"/>
</svg>
