<svg width="222" height="45" viewBox="0 0 222 45" fill="none" xmlns="http://www.w3.org/2000/svg">
<g clip-path="url(#clip0_58_157)">
<rect width="222" height="45" fill="black"/>
<path d="M46.458 11.8545C47.3369 11.4801 48.0531 11.293 48.6064 11.293C49.4854 11.293 50.1934 11.5859 50.7305 12.1719C51.2839 12.7415 51.5605 13.4821 51.5605 14.3936C51.5605 16.5583 50.4212 18.4788 48.1426 20.1553C49.0866 22.1735 49.5586 24.0859 49.5586 25.8926C49.5586 28.7409 48.46 31.223 46.2627 33.3389C44.0817 35.4385 41.3636 36.4883 38.1084 36.4883C35.6019 36.4883 33.5186 35.8861 31.8584 34.6816C30.2145 33.4609 29.1647 31.7194 28.709 29.457C29.5553 28.8223 30.7516 28.4235 32.2979 28.2607L32.4443 28.7002C32.2165 29.0745 32.1025 29.5547 32.1025 30.1406C32.1025 31.6217 32.7454 32.875 34.0312 33.9004C35.3333 34.9258 36.904 35.4385 38.7432 35.4385C41.0218 35.4385 42.9424 34.6491 44.5049 33.0703C46.0674 31.4753 46.8486 29.5547 46.8486 27.3086C46.8486 25.681 46.2627 23.7441 45.0908 21.498C44.4235 21.5957 43.6911 21.6445 42.8936 21.6445C40.3708 21.6445 38.3281 20.9609 36.7656 19.5938C35.2194 18.2266 34.4463 16.4606 34.4463 14.2959C34.4463 11.3988 35.8542 8.87598 38.6699 6.72754C41.502 4.56283 45.4082 3.48861 50.3887 3.50488L50.6084 4.09082C48.7529 4.66048 47.3206 5.58822 46.3115 6.87402C45.3024 8.14355 44.7979 9.51888 44.7979 11C44.7979 12.9531 45.75 15.6875 47.6543 19.2031C49.1191 18.1615 49.8516 16.8757 49.8516 15.3457C49.8516 14.4831 49.6074 13.7669 49.1191 13.1973C48.6471 12.6276 48.1426 12.3428 47.6055 12.3428C47.4102 12.3428 47.0602 12.3916 46.5557 12.4893L46.458 11.8545ZM47.8496 4.50586C44.3991 4.89648 41.7868 5.87305 40.0127 7.43555C38.2386 8.99805 37.3516 11.0488 37.3516 13.5879C37.3516 15.6875 37.9212 17.3802 39.0605 18.666C40.1999 19.9518 41.6973 20.5947 43.5527 20.5947L44.5049 20.5459C43.2354 17.5837 42.6006 15.1667 42.6006 13.2949C42.6006 9.76302 44.3503 6.83333 47.8496 4.50586ZM70.7256 32.1426C68.7562 35.0397 66.8763 36.4883 65.0859 36.4883C64.5 36.4883 64.0524 36.3011 63.7432 35.9268C63.4339 35.5361 63.2793 34.6572 63.2793 33.29V27.6992C63.2793 26.8366 63.0107 26.4053 62.4736 26.4053C62.2132 26.4053 61.9365 26.5029 61.6436 26.6982C61.3669 26.8936 61.0658 27.1865 60.7402 27.5771C60.4147 27.9515 59.9508 28.5863 59.3486 29.4814C58.7627 30.3604 58.4697 30.8486 58.4697 30.9463V35.3408L56.0283 36.9033V28.7002C55.5238 29.986 54.7588 31.2881 53.7334 32.6064L52.9766 31.9961C54.6204 29.6849 55.654 27.6016 56.0771 25.7461L58.4697 24.5986V29.1396C59.6579 27.4144 60.6182 26.2588 61.3506 25.6729C62.083 25.0869 62.8236 24.7939 63.5723 24.7939C64.2559 24.7939 64.7848 25.0381 65.1592 25.5264C65.5335 26.0146 65.7207 27.2191 65.7207 29.1396V32.4111C65.7207 33.29 65.7533 33.8923 65.8184 34.2178C65.8997 34.5433 66.1032 34.7061 66.4287 34.7061C67.2262 34.7061 68.4062 33.64 69.9688 31.5078L70.7256 32.1426ZM75.3398 20.2529C75.7305 20.0251 76.2513 19.9111 76.9023 19.9111C78.1882 19.9111 79.2949 20.4645 80.2227 21.5713C81.1667 22.6781 81.6387 24.0697 81.6387 25.7461C81.6387 29.6198 79.5228 33.3063 75.291 36.8057L74.998 36.6104C75.0632 36.1058 75.0957 35.6663 75.0957 35.292C75.0957 33.7946 74.1436 31.7275 72.2393 29.0908C71.8649 29.4652 71.3929 30.0918 70.8232 30.9707L69.7002 32.6553L68.9434 31.9961C69.2363 31.6217 69.6188 31.0439 70.0908 30.2627C70.5628 29.4652 70.929 28.8792 71.1895 28.5049C72.0358 27.3493 72.5404 26.1449 72.7031 24.8916H73.0449C73.2077 25.738 73.7611 26.8447 74.7051 28.2119C75.6491 29.5791 76.2269 30.6289 76.4385 31.3613C76.6663 32.0775 76.7803 32.7611 76.7803 33.4121V34.0957C79.3519 31.459 80.6377 28.6595 80.6377 25.6973C80.6377 24.5905 80.3691 23.7197 79.832 23.085C79.2949 22.4339 78.5951 22.1084 77.7324 22.1084C77.0814 22.1084 76.4548 22.2712 75.8525 22.5967C75.5107 21.9131 75.3398 21.1318 75.3398 20.2529ZM83.5918 32.1426C81.8177 35.0072 79.6204 36.5615 77 36.8057L76.8291 36.3418C78.0173 36.0651 79.0182 35.6094 79.832 34.9746C80.6458 34.3236 81.6305 33.1842 82.7861 31.5566L83.5918 32.1426ZM96.6045 32.1426C95.6442 33.7051 94.5944 34.8444 93.4551 35.5605C92.3158 36.2604 90.8184 36.6104 88.9629 36.6104C87.612 36.6104 86.5378 36.2116 85.7402 35.4141C84.959 34.6003 84.5684 33.4609 84.5684 31.9961C84.5684 31.6055 84.6009 31.1904 84.666 30.751C84.0801 31.4997 83.6325 32.1019 83.3232 32.5576L82.5176 31.9961C84.6335 29.0013 86.2611 27.04 87.4004 26.1123C88.5397 25.1683 89.7116 24.6963 90.916 24.6963C91.5833 24.6963 92.1286 24.8916 92.5518 25.2822C92.9912 25.6729 93.2109 26.1774 93.2109 26.7959C93.2109 28.9118 91.3473 30.9951 87.6201 33.0459C88.1247 34.2178 89.1745 34.8037 90.7695 34.8037C91.5345 34.8037 92.3809 34.527 93.3086 33.9736C94.2526 33.4202 95.1071 32.6146 95.8721 31.5566L96.6045 32.1426ZM87.1562 32.0938C89.8581 30.7754 91.209 29.3105 91.209 27.6992C91.209 27.2109 91.0706 26.8122 90.7939 26.5029C90.5335 26.1937 90.1755 26.0391 89.7197 26.0391C88.8896 26.0391 88.1898 26.4215 87.6201 27.1865C87.0505 27.9515 86.7656 28.8711 86.7656 29.9453C86.7656 30.5312 86.8307 31.0277 86.9609 31.4346C87.0911 31.8252 87.1562 32.0449 87.1562 32.0938ZM101.243 24.208C102.513 24.859 103.53 25.8112 104.295 27.0645C105.06 28.3177 105.442 29.5791 105.442 30.8486C105.442 32.3623 104.995 33.6807 104.1 34.8037C103.221 35.9268 102.09 36.4883 100.706 36.4883C100.022 36.4883 99.2819 36.2604 98.4844 35.8047C97.6868 35.349 96.9951 34.6816 96.4092 33.8027C96.9137 33.0215 97.6462 32.3542 98.6064 31.8008L98.8018 32.0449C98.7692 32.2077 98.7529 32.4437 98.7529 32.7529C98.7529 33.4528 98.9971 34.0794 99.4854 34.6328C99.9736 35.1699 100.527 35.4385 101.146 35.4385C101.91 35.4385 102.537 35.1211 103.025 34.4863C103.514 33.8353 103.758 33.0215 103.758 32.0449C103.758 30.0267 102.553 28.2282 100.145 26.6494L98.0693 29.9209C97.2393 31.2555 96.637 32.1507 96.2627 32.6064L95.5059 31.9961C97.166 29.5384 98.818 26.5436 100.462 23.0117L101.048 23.0605L101.243 24.208ZM109.593 32.1426C107.851 35.0072 105.654 36.5615 103.001 36.8057L102.854 36.3418C104.026 36.0651 105.019 35.6094 105.833 34.9746C106.663 34.3236 107.672 33.1842 108.86 31.5566L109.593 32.1426ZM120.481 32.0938C118.642 35.0234 116.697 36.4883 114.646 36.4883C113.67 36.4883 113.06 36.2604 112.815 35.8047C112.571 35.3327 112.449 34.584 112.449 33.5586V27.6504C111.359 29.5221 110.293 31.1579 109.251 32.5576L108.445 31.9961C109.048 31.1009 109.56 30.3197 109.983 29.6523C110.407 28.985 110.919 28.1143 111.521 27.04C112.14 25.9495 112.449 25.3392 112.449 25.209V15.1992L114.891 12.8066V22.1084L118.65 16.2002L119.603 16.9082L114.891 24.3545V31.8496C114.891 32.9889 114.939 33.7539 115.037 34.1445C115.135 34.5189 115.403 34.7061 115.843 34.7061C116.95 34.7061 118.268 33.6237 119.798 31.459L120.481 32.0938ZM161.082 31.5566C158.901 35.0234 156.403 36.7568 153.587 36.7568C151.243 36.7568 149.38 35.6582 147.996 33.4609C146.613 31.2637 145.921 28.1794 145.921 24.208C145.921 23.085 145.986 21.4818 146.116 19.3984C145.693 19.4961 145.197 19.5449 144.627 19.5449C144.269 19.5449 143.878 19.4717 143.455 19.3252C143.032 19.1787 142.706 19.1055 142.479 19.1055C142.365 19.1055 142.145 19.138 141.819 19.2031C142.129 20.668 142.283 22.3363 142.283 24.208C142.283 27.7725 141.258 30.7428 139.207 33.1191C137.156 35.4792 134.528 36.6592 131.321 36.6592C127.382 36.6592 124.648 35.0885 123.118 31.9473L125.73 29.6523L126.072 29.8965C126.935 33.7051 128.969 35.6094 132.176 35.6094C134.357 35.6094 136.098 34.8281 137.4 33.2656C138.719 31.7031 139.378 29.5954 139.378 26.9424C139.378 26.3239 139.272 25.0381 139.061 23.085C138.865 21.1156 138.768 19.4229 138.768 18.0068C138.768 13.7913 139.451 10.3734 140.818 7.75293C140.623 7.81803 140.143 8.02962 139.378 8.3877C138.629 8.72949 137.962 8.90039 137.376 8.90039C136.106 8.90039 134.829 8.29004 133.543 7.06934C132.273 5.84863 131.102 5.23828 130.027 5.23828C128.823 5.23828 127.7 5.81608 126.658 6.97168C125.633 8.12728 125.12 9.4375 125.12 10.9023C125.12 12.1556 125.503 13.1973 126.268 14.0273C127.033 14.8411 127.968 15.248 129.075 15.248C129.889 15.248 130.646 15.012 131.346 14.54C132.062 14.0518 132.607 13.3682 132.981 12.4893L133.616 12.709C133.209 14.2064 132.477 15.3701 131.419 16.2002C130.361 17.0303 129.262 17.4453 128.123 17.4453C126.854 17.4453 125.787 16.9733 124.925 16.0293C124.062 15.069 123.631 13.889 123.631 12.4893C123.631 10.2106 124.428 8.13542 126.023 6.26367C127.635 4.39193 129.466 3.45605 131.517 3.45605C133.209 3.45605 134.78 4.20475 136.229 5.70215C137.303 6.76009 138.287 7.28906 139.183 7.28906C140.062 7.28906 140.867 6.87402 141.6 6.04395L143.626 3.74902L144.383 4.26172C142.12 6.45898 140.989 9.40495 140.989 13.0996C140.989 14.7272 141.201 16.3792 141.624 18.0557C142.373 17.5837 143.056 17.3477 143.675 17.3477C144.375 17.3477 145.294 17.6325 146.434 18.2021C147.264 13.6286 148.729 10.0479 150.828 7.45996C152.944 4.85579 155.174 3.55371 157.518 3.55371C158.999 3.55371 160.089 4.01758 160.789 4.94531L158.323 7.45996C157.607 5.91374 156.744 5.14062 155.735 5.14062C154.14 5.14062 152.553 6.54036 150.975 9.33984C149.412 12.123 148.631 15.9967 148.631 20.9609C148.631 25.1276 149.241 28.4642 150.462 30.9707C151.683 33.4609 153.188 34.7061 154.979 34.7061C156.948 34.7061 158.73 33.4528 160.325 30.9463L161.082 31.5566ZM177.854 32.1426C175.885 35.0397 174.005 36.4883 172.215 36.4883C171.613 36.4883 171.149 36.293 170.823 35.9023C170.514 35.4954 170.359 34.6247 170.359 33.29V31.2393C168.602 33.8271 167.365 35.3896 166.648 35.9268C165.932 36.4476 165.257 36.708 164.622 36.708C163.955 36.708 163.434 36.4801 163.06 36.0244C162.701 35.5687 162.522 34.5107 162.522 32.8506V28.8467C161.823 30.4092 161.106 31.6462 160.374 32.5576L159.568 31.9961C161.017 29.9128 162.002 27.8132 162.522 25.6973L164.964 24.4521V33.29C164.964 33.9248 164.996 34.3561 165.062 34.584C165.143 34.7956 165.346 34.9014 165.672 34.9014C166.03 34.9014 166.494 34.6247 167.063 34.0713C167.649 33.5179 168.341 32.6309 169.139 31.4102C169.952 30.1895 170.359 29.5221 170.359 29.4082V25.6973L172.825 24.4521V32.0938C172.825 33.1029 172.858 33.7946 172.923 34.1689C173.004 34.527 173.216 34.7061 173.558 34.7061C174.355 34.7061 175.543 33.64 177.122 31.5078L177.854 32.1426ZM182.713 27.1621C184.015 25.4531 185.61 24.5986 187.498 24.5986C188.556 24.5986 189.419 24.9811 190.086 25.7461C190.77 26.4948 191.111 27.4632 191.111 28.6514C191.111 30.5719 190.395 32.3623 188.963 34.0225C187.547 35.6663 185.96 36.4883 184.202 36.4883C182.916 36.4883 181.907 36.0814 181.175 35.2676C180.459 34.4375 180.101 33.2656 180.101 31.752V28.0898C179.547 29.5059 178.733 30.9626 177.659 32.46L176.951 31.8008C177.863 30.3522 178.611 28.9606 179.197 27.626C179.799 26.2913 180.101 25.5833 180.101 25.502V16.4443C180.101 13.6286 180.711 11.3499 181.932 9.6084C183.152 7.86686 184.56 6.99609 186.155 6.99609C186.969 6.99609 187.628 7.28092 188.133 7.85059C188.654 8.42025 188.914 9.15267 188.914 10.0479C188.914 11.3174 188.442 13.002 187.498 15.1016C186.57 17.2012 184.975 20.1878 182.713 24.0615V27.1621ZM182.713 22.0596C184.552 18.8044 185.757 16.4199 186.326 14.9062C186.912 13.3926 187.205 12.0417 187.205 10.8535C187.205 10.056 187.034 9.41309 186.692 8.9248C186.351 8.43652 185.903 8.19238 185.35 8.19238C184.552 8.19238 183.909 8.65625 183.421 9.58398C182.949 10.5117 182.713 11.7487 182.713 13.2949V22.0596ZM182.713 32.1914C182.713 34.3561 183.445 35.4385 184.91 35.4385C185.903 35.4385 186.814 34.9176 187.645 33.876C188.491 32.8343 188.914 31.6055 188.914 30.1895C188.914 29.0176 188.646 28.098 188.108 27.4307C187.571 26.7471 186.871 26.4053 186.009 26.4053C185 26.4053 184.194 26.7796 183.592 27.5283C183.006 28.2607 182.713 28.7002 182.713 28.8467V32.1914ZM194.554 32.1426C192.763 34.9746 190.379 36.5615 187.4 36.9033L187.205 36.3418C189.826 35.7559 192.023 34.1608 193.797 31.5566L194.554 32.1426Z" fill="white"/>
</g>
<defs>
<clipPath id="clip0_58_157">
<rect width="222" height="45" fill="white"/>
</clipPath>
</defs>
</svg>
